solid block
facet normal -0.0 -1.0 -0.0
outer loop
vertex 113.5625 0.0 64.1875
vertex 0.0 0.0 0.0
vertex 113.5625 0.0 0.0
endloop
endfacet
facet normal -0.0 -1.0 -0.0
outer loop
vertex 0.0 0.0 0.0
vertex 113.5625 0.0 64.1875
vertex 0.0 0.0 64.1875
endloop
endfacet
facet normal 0.0 0.0 -1.0
outer loop
vertex 113.5625 437.0 0.0
vertex 0.0 0.0 0.0
vertex 0.0 437.0 0.0
endloop
endfacet
facet normal 0.0 0.0 -1.0
outer loop
vertex 0.0 0.0 0.0
vertex 113.5625 437.0 0.0
vertex 113.5625 0.0 0.0
endloop
endfacet
facet normal 0.0 0.0 1.0
outer loop
vertex 113.5625 0.0 64.1875
vertex 0.0 437.0 64.1875
vertex 0.0 0.0 64.1875
endloop
endfacet
facet normal 0.0 0.0 1.0
outer loop
vertex 0.0 437.0 64.1875
vertex 113.5625 0.0 64.1875
vertex 113.5625 437.0 64.1875
endloop
endfacet
facet normal -1.0 0.0 0.0
outer loop
vertex 0.0 437.0 64.1875
vertex 0.0 0.0 0.0
vertex 0.0 0.0 64.1875
endloop
endfacet
facet normal -1.0 0.0 0.0
outer loop
vertex 0.0 0.0 0.0
vertex 0.0 437.0 64.1875
vertex 0.0 437.0 0.0
endloop
endfacet
facet normal -0.0 1.0 0.0
outer loop
vertex 0.0 437.0 64.1875
vertex 113.5625 437.0 0.0
vertex 0.0 437.0 0.0
endloop
endfacet
facet normal -0.0 1.0 0.0
outer loop
vertex 113.5625 437.0 0.0
vertex 0.0 437.0 64.1875
vertex 113.5625 437.0 64.1875
endloop
endfacet
facet normal 1.0 0.0 0.0
outer loop
vertex 113.5625 437.0 0.0
vertex 113.5625 0.0 64.1875
vertex 113.5625 0.0 0.0
endloop
endfacet
facet normal 1.0 0.0 0.0
outer loop
vertex 113.5625 0.0 64.1875
vertex 113.5625 437.0 0.0
vertex 113.5625 437.0 64.1875
endloop
endfacet
endsolid block
